<?xml version="1.0" encoding="utf-8"?>
<!-- Generator: Adobe Illustrator 19.1.0, SVG Export Plug-In . SVG Version: 6.00 Build 0)  -->
<svg version="1.1" id="Layer_1" xmlns="http://www.w3.org/2000/svg" xmlns:xlink="http://www.w3.org/1999/xlink" x="0px" y="0px"
	 viewBox="0 0 157.2 72" style="enable-background:new 0 0 157.2 72;" xml:space="preserve">
<style type="text/css">
	.st0{fill:#FFFFFF;}
	.st1{fill:#fff;stroke-width:0.5;stroke-linejoin:round;}
</style>
<path class="st0" d="M31,41.5"/>
<path class="st0" d="M31,40.6"/>
<polyline class="st0" points="28.4,17.6 31,15.7 33.6,17.6 32.6,14.5 35.2,12.6 32,12.6 31,9.5 30,12.6 26.8,12.6 29.4,14.5 
	28.4,17.6 "/>
<polyline class="st0" points="15,21.2 17.6,19.3 20.2,21.2 19.2,18.1 21.8,16.2 18.6,16.2 17.6,13.1 16.6,16.2 13.4,16.2 16,18.1 
	15,21.2 "/>
<polyline class="st0" points="7.8,23 6.8,26 3.6,26 6.2,27.9 5.2,31 7.8,29.1 10.4,31 9.4,27.9 12,26 8.8,26 7.8,23 "/>
<polyline class="st0" points="4.2,42.5 6.8,44.3 5.8,41.3 8.5,39.4 5.2,39.4 4.2,36.3 3.2,39.4 0,39.4 2.6,41.3 1.6,44.3 4.2,42.5 
	"/>
<polyline class="st0" points="8.8,52.8 7.8,49.7 6.8,52.8 3.6,52.8 6.2,54.7 5.2,57.7 7.8,55.9 10.4,57.7 9.4,54.7 12,52.8 
	8.8,52.8 "/>
<polyline class="st0" points="18.6,62.6 17.6,59.5 16.6,62.6 13.4,62.6 16,64.5 15,67.6 17.6,65.7 20.2,67.6 19.2,64.5 21.9,62.6 
	18.6,62.6 "/>
<polyline class="st0" points="32,66.2 31,63.1 30,66.2 26.8,66.2 29.4,68.1 28.4,71.1 31,69.2 33.6,71.1 32.6,68.1 35.2,66.2 
	32,66.2 "/>
<polyline class="st0" points="45.3,62.6 44.4,59.5 43.4,62.6 40.1,62.6 42.8,64.5 41.8,67.6 44.4,65.7 46.9,67.6 46,64.5 48.6,62.6 
	45.3,62.6 "/>
<polyline class="st0" points="55.2,52.8 54.2,49.7 53.2,52.8 49.9,52.8 52.6,54.7 51.6,57.7 54.2,55.9 56.8,57.7 55.8,54.7 
	58.4,52.8 55.2,52.8 "/>
<polyline class="st0" points="61.9,39.4 58.7,39.4 57.7,36.3 56.7,39.4 53.5,39.4 56.1,41.3 55.1,44.3 57.7,42.4 60.3,44.3 
	59.3,41.3 61.9,39.4 "/>
<polyline class="st0" points="51.6,30.9 54.2,29.1 56.8,30.9 55.8,27.9 58.4,26 55.2,26 54.2,22.9 53.2,26 49.9,26 52.6,27.9 
	51.6,30.9 "/>
<polyline class="st0" points="44.4,13.1 43.4,16.2 40.2,16.2 42.8,18.1 41.8,21.2 44.4,19.3 47,21.2 46,18.1 48.6,16.2 45.4,16.2 
	44.4,13.1 "/>
<g>
	<rect x="72.2" y="35.7" class="st0" width="14.8" height="9.8"/>
	<g>
		<polygon class="st0" points="85.8,31.7 85.8,49.5 94.8,40.6 		"/>
	</g>
</g>
<g id="layer1" >
	<g id="g10621">
	</g>
	<g id="g10134" transform="matrix(0.9036965,0,0,0.9036965,15.609922,49.361285)">
	</g>
	<g id="g9510" transform="translate(16.804731,4.7445017)">
		<path id="path8766" class="st1" d="M108,34.3l0.2-0.4l0.5-0.2l0.5-0.8l0.4-0.3l0.4,0.1l-0.4,0.5l0.3,0.4l0,0.4l-0.4,0.5l-0.4,0.1
			l-0.8,0.7l-0.2-0.1l0.2-0.5L108,34.3z"/>
		<g id="g9251" transform="translate(-22,59)">
			
				<path id="path6821"  class="st1" d="
				M128.2-37.3l-0.4-0.2l-0.2-0.3l0.1-0.6l0.2-0.4l0-0.2l-0.5,0.5l-0.3-0.1l0,0.7l0.7,1.1l-0.7,0.4l-0.5,3l-1.1,0.1l0.1-0.7l0.4-0.4
				l0-1l0.6-1.4l-0.3-0.5l0.3-0.7l-0.3,0.3L126-38l0-0.2l0.8-1.6l-0.3-0.8l1.5-3.2l-1.7,1.5l-0.2-0.1l-0.1-0.2l-0.3,0l-0.3-0.1
				l-0.4-0.7l0.9-0.4l-1.8-0.1l0-0.2l0.2-0.3l1.2-0.1l0.7-0.8l-0.8,0.1l0.2-0.5l0.2-0.4l0.7-0.2l-0.4-0.3l0.7-1.1l0,0l0.2-0.4
				l-0.2-0.1l-0.3,0l-0.1,0l-0.2,0l0.5-0.4l-0.7,0l-0.4-0.9l0.2-0.8l0.8,0.4l0.2-0.2l-0.9-0.7l0.5-0.6l-0.5-0.2l-0.1-0.9l0.7,0
				l0.2-0.3l0.6,0.3l0.3-0.5l0.9-0.2l-1.2-1.1l0.8,0l-0.5-1l1.2-0.4l-0.2-0.9l0.7-0.2l-0.6-0.4l0.5-1l1.4,0.5l0.4-0.2l0.8,0.3
				l1.1-0.2l0.5-0.1l0.8,0l0.5-0.3L136-58l-0.2-0.5l1.5,0.1l-0.5,1.3l0.4,0l-0.1,0.5l-0.6,0.7l-0.6,0.2l-0.5,0.7l-1.4,1l0,0.3
				l-0.6,0.3l0,0.6l-0.6,0.5l1.5-0.3l-0.7,1.4l-0.2,0l-0.1-0.4l-0.6,0.5l0.6,0l-0.8,1.2l0.2,0l0.6-0.7l0.3,0.1l0.2,0l0.5-0.2
				l0.4-0.3l0.7-0.1l0.2-0.3l1-0.2l0.9,0.4l0.7-0.3l1.5,0.2l2.4-0.2l0.5,0.5l0.2,1.1l-1,1.6l-0.2,1.1l-0.7,2l-0.6,0.5l-0.3,1.1
				l-1,1.1l-0.8,0l-0.6,0.2l-0.8,0.7l0.8-0.4l0.7-0.3l0.4,0l0,0.4l-0.2,0.1l1.2,0.6l-0.9,0.7l-0.6-0.2l-0.9,0.7l-0.1,0.4l-0.9,0.4
				l-0.7-0.2l-0.4,0l-0.4-0.2l-0.2,0l-0.4-0.3l0.6,0.6l0.8,0.3l0.8,0l0.5,0.1l0.4-0.1l0.4,0.2l0.8-0.2l0.5-0.7l0.7-0.1l0.3,0.5
				l0.3,0l0.6,0.5l0.8,0l0.6,1l2.1,1.7l0.7,3.9l0.6,1.5l0.4,0.8l0.9,0.8l2.8,1.3l1.8,2.3l0.6,0.3l-0.6,0.5l1.9,3.2l-1.1,0l-1-0.7
				l-1.3,0.3l1.3-0.2l0.9,0.8l1.3,0.9l1.1,2l0,1l-1.3,1.5l1.7,0.9l0.7-1.6l2.4-0.1l1.6,0.2l1.9,1.4l0.4,1.9l-0.6,3.1L160-8.2
				l0.4,0.2l-0.8,0.8l-1.1,0.1l0.3,0.3l0,0.8L158-5.1l-1.5,0.2l0.7,0.1l1.5,0.4l0.6,0.4l2.1-0.4l-0.2,0.6l0.3,1.2l-1.1,0.8l-0.6,0.2
				L159.3-1l0.1,0.4l-0.9,0l-0.1,0l-0.6,0.5l-1.5,0.5l-0.6,0.7l-2.5-0.7L150.8,1l-0.2,0.4l-0.9-0.4l-1.1,0.1l-1.2-0.8l0.2,0.4l0,0.2
				l-0.2,0.3l-0.9,0.2l-0.2,0.3l-0.6-0.1l-0.2,0.1l-1,0.2l-0.1,0.7L142,2.5L141.9,3l-1.8-1l-0.8-0.1l-0.7,0.3l-1,0.3l-0.3,0.4
				l-0.5,0l-0.4,0.8l0.1,0.2l-0.3,0.3l0.3,0.3l-0.1,0.5l-0.6,0.2l0.1,0.6l-1.2-0.2l-0.4-0.4l-1-0.1L133.3,5l-0.1,0l-0.3,0.3
				l-0.6-0.5l-0.8,0l-0.4,0.3l-1,0L129.6,6l-0.7,0.2l-0.3,0.5l-0.8,0.3l0.5,0.4L127.7,8L127,7l-0.8-0.3l-0.4,0.5l-0.6,0.2l-0.2-0.3
				l0.2-0.6l1.1-0.5c0,0,0.3,0.2,0.3,0.2c0,0,2-2,2-2l0-0.7l0.5-0.1l0.9-0.4l0-0.5l1.1-0.9l0-1.1l0.2-0.6l1,0.2l0.6-0.6l-0.3-0.5
				l0.1-0.4l2.3-0.4l0.8,0.1l0.2-0.1l0.9,0.4l2.1-0.4l-0.1-0.8l1.9-2.1l0.5-0.7l-0.5,0.5l-0.1,0l-0.3,0.2l-0.4,0.1l-0.1,0.2
				l-0.3,0.2L139-4.4l-0.2-0.1l-0.1,0l0,0.2l-0.4,0.2l-0.2,0l-0.3,0.3l-0.1,0.4l0,0.1l-0.2-0.1l-0.2,0.1l-0.7,0l-0.5-0.1l-0.2,0
				l-0.2-0.2l0-0.1l-0.3-0.2l-0.1-0.1l-0.1,0.1l-0.2,0L135.2-4L135-4.1l0-0.3L134.6-5l-0.2,0l-0.1,0.1l-0.3,0l-0.1,0.3l-0.4,0
				l-0.1-0.1L133-4.6l0,0.2l-0.2,0l-0.3-0.1l0-0.2l-0.1-0.1l0.1,0l0.1-0.2l0.2,0.1l0.1,0.1l0.4-0.3l0-0.2l-0.1,0l-0.1,0l-0.1-0.2
				l-0.5,0l-0.2,0.1l-0.2-0.2l0.1,0l0-0.1L132.1-6l0-0.1l0.1-0.1l0-0.2l-0.1,0l-0.2,0.2l-0.2-0.1l-0.2,0l-0.1,0l0,0.2l0.1,0.1
				l-0.1,0L131-6l-0.4,0l-0.4,0.2l0,0.2l0,0.1l-0.1,0.2L130-5.3l-0.6,0L129.1-5l-0.2-0.1l-0.3-0.1l-0.1-0.1l0-0.2l0.1-0.1l0.1,0
				l0.1,0l0.2,0l0-0.2l-0.1-0.1l-0.3,0l-0.2-0.1l-0.2,0l-0.1-0.1l-0.1,0l-0.1,0l-0.1,0l-0.1,0l0,0.2l-0.1-0.1l0.2-0.3l0.2,0l0.1-0.1
				l0-0.4l-0.2-0.3l-0.2,0L127.4-7l0-0.1l0.5-0.3l0.3,0l0.3-0.2l0-0.4l0-0.1l0.4,0.1l0.1,0.1l0.2,0l0.2-0.2l0.2,0.1l0.2,0l0-0.2
				l0.1-0.1l0.5-0.4l0.1,0l0.1-0.1l0.4-0.1l0.1,0.1l0.1,0l0.1-0.1l0.3-0.3l0.3,0l0-0.1l0.3-0.3l0.2,0.1l0.4-0.4l0.2,0l0.4-0.6
				l0.4-1.6l0-0.1l-0.4-0.4c0,0,0.1-0.4,0.4-0.6c0-0.1,0-0.2,0-0.2l0.3-0.2l-0.1-0.2l-0.3,0.3l-0.2,0l-0.1-0.1l0-0.2l-0.1-0.2
				l-0.1-0.2l0.1-0.1l0-0.2l-0.1-0.1l0.2,0l0.2-0.2l-0.1-0.1l-0.4,0l-0.3,0.1l-0.2,0l-0.3,0l-0.2,0.1l-0.2,0l-0.2,0.1l-0.4,0
				c0,0-0.7,0.4-0.4,0.7c-0.1,0-0.1,0-0.1,0l-0.4-0.3c0,0-0.1,0-0.1,0.1c0,0.1,0,0.1,0,0.1l-0.5,0c0,0,0.2-0.4,0.5-0.6
				c0.3-0.2,0.9-0.4,1-0.7c0.1-0.2,0.2-0.2,0.2-0.2l0.2-0.1l0.2-0.3l0-0.3l0.2-0.1l0-0.1l0.8-0.4l0.1-0.1l0-0.2l0.2-0.1l0.4,0
				l0.4-0.2l0.2,0l0.6-0.3l0-0.2l0.1,0l0.4,0.3l0.1,0l0.2-0.1l0.2,0l0.3-0.2l0.1,0l0.2-0.1l0.3-0.1l0.2,0.1l0.2-0.3L137-18l0.3,0.1
				l0.5,0.2l0.1-0.1l-0.4-0.8l0.8-0.4l-0.4-0.8l0.6-1.2l-0.4-0.6l0-1.1l0.8-0.4l-0.3-0.7l0.5-0.3l-0.3-0.5l-0.1,0l-0.3,0.3l-0.3-0.4
				l-0.6,0.9l-0.4-0.4l0.2-0.6l-0.5,0.3l-1.6-2.5l0.4-1.3l0.6-0.8l0.3-0.9l1.3-0.6l0.3-0.2l-2.4,0l0,0.8l-0.9,0.1l-0.7,0.8l-0.5-0.1
				l-1.6-0.9l-0.2,0.2l0.4,0.4l-0.2,0.9l-2.1-1.4l-0.5,0.3l0.4,1.4l-0.4-0.1l-0.1-0.8l-0.7-0.7l-0.2-0.4l0-0.7l0.4,0l0.3,0.7
				l-0.1-0.7l-0.1-0.2l0.3-0.7l0.6-0.7l0.1-0.7l0.3-0.3l0.1-0.4l0.5-0.3l0-1l-1.2-0.9l0.3-0.5l-0.1-0.2l-0.1-0.3l0.1-0.3l0-0.3
				l0.3-0.2l0.1,0l0.2,0.1l0.4-0.1l-0.5-0.3l-0.4,0l-0.4,0.1l-0.3,1l0,0.1l-0.1-0.2l-0.9-0.6l-0.1,0.1L128.2-37.3z"/>
			<path id="path6763" class="st1" d="M126.5-47.6l-0.3,0.1l-0.3,0.1l-0.5,0.9l-0.6,0.4l0-0.3l0.4-0.8l-0.3-0.1l-0.2,0.4l-0.2-0.4
				l-0.8,0l-0.8-0.9l0.2-0.5l-0.4-0.3l-0.3,0.5l-0.6-0.4l-0.1-0.4l0.2-0.5l0.5,0.4l-0.2-0.6l0.2-0.4l1.1,0.7l-0.1-0.6l-0.2-0.5
				l0.5-0.5l0.6,1l0,1.5l0.5,0.5l0.6,0.4l0.1,0.2l0.6-0.3l0.1,0.1l0.3,0l0.1,0.1L126.5-47.6z"/>
			<path id="path6197" class="st1" d="M129.1-37.2c0.2,0.2,0.2,0.2,0.2,0.2l-0.2,0.6l-0.6-0.7l-0.1-0.6
				C128.6-37.6,128.9-37.4,129.1-37.2z"/>
			<path id="path6753" class="st1" d="M132-16.5l0.6-0.3l0-0.2l0-0.1l0.7-0.4l0-0.2l0.1-0.1l-0.1-0.1l-0.2,0l-0.2,0.1l-0.3-0.2
				l-0.1-0.3l-0.2,0l0-0.4l-0.5,0l-0.2-0.1l-0.4,0.2l-0.3,0l0.2,0.2l0,0.3l-0.1,0.1l0,0.5l0.3,0.2l0,0.3l0.2,0l0.1,0.2l0.2-0.3
				l0.1,0.2l-0.1,0.1L132-16.5z"/>
			<path id="path6755" class="st1" d="M130.4-17.8l0.1,0.3l0.2,0l0.2,0.3l0.1,0l0-0.2l-0.2-0.2l-0.3-0.2L130.4-17.8z"/>
			<path id="path6827" class="st1" d="M120.9-51.7l-0.6-0.6l0.8-0.3l0.1-0.1l0.4-0.1l-1.3-0.9l0.6-0.2l0.3,0l1.2,0.9l0,0.4l-0.4,0
				l-0.1,0.4L120.9-51.7z"/>
			<path id="path6829" class="st1" d="M124.1-57.3l-2.4,1.5l0.2,0.8l-1.1-0.3l-0.4,0.4l0.1,0.7l0.4,0.1l0.2,0l1,0.7l0.3,0.2l0,0.2
				L123-53l0.4-0.5l0.1-1l0.2-0.9l0.6-0.7L124.1-57.3z"/>
			<path id="path6831" class="st1" d="M120.6-50.8l-0.6-0.5l-0.9,0.1l-0.5,0.6l0.6,0.4l0,0.4l-0.1,0.2l0.1,0.3l0.3,0l0.3,0.3
				L120.6-50.8z"/>
			<path id="path6833" class="st1" d="M119.1-49.2l-0.2,0.3l0.1,0.4l-0.3,0.6L119-47l0.6,0.1l0-1.1l0.3-0.5l0-0.3L119.1-49.2z"/>
			<path id="path6835" class="st1" d="M118.7-46.4l0.3,0.2l0,0.2l-0.4,0.4l-0.3-0.1L118.7-46.4z"/>
			<path id="path6837" class="st1" d="M123-46.1l0.4-0.3l0.3,0l0.2,0.3l-0.3,0.5l-0.2,0L123-46.1z"/>
			<path id="path6839" class="st1" d="M124.1-45.9l0.2,0.1l-0.2,0.4l-0.3-0.1l0.2-0.2L124.1-45.9z"/>
			<path id="path6841" class="st1" d="M122.9-43.9l-0.1,0.6l-1,0.5l0-0.2l0.4-0.3L122.9-43.9z"/>
			<path id="path6843" class="st1" d="M121.5-42.7l0.1,0.1l-0.6,0.5l-0.2-0.1l0-0.4l0.3,0L121.5-42.7z"/>
			<path id="path6845" class="st1" d="M124.2-38.1l-1.5,0.6l-0.2,1.3l0.8-0.8l0.5,0.1l-0.6,0.2l0.2,0.3l0.2,0.3l-0.2,0.4l0.1,0.2
				l1.3-0.8l-0.4-1l0-0.6L124.2-38.1z"/>
			<path id="path6847" class="st1" d="M126-39.7l-1.2,0.9l0,0.4l0.4,0l-0.5,0.2l-0.3,0.3l0,0.6l0.2,0.3l0.4,0l1.3-2.3L126-39.7z"/>
			<path id="path6849" class="st1" d="M128-36.4l-0.6,0.7l0.2,0.3l-0.1,0.5l0.5,0.6l0.7,0l0.1-0.9l-0.3-0.2l-0.1-0.8L128-36.4z"/>
			<path id="path6851" class="st1" d="M124.6-48.9l0-0.7l0.4-0.7l0,0.4l-0.3,0.4l0.2,0.7l-0.1,0.1L124.6-48.9z"/>
			<path id="path6853" class="st1" d="M124.2-42.3l-0.8-0.3l0.1-0.4l0.7-0.5l0.4,0.3l0.4,0.8l0.6,0l0.6,0.3l0,0.8l-0.5,0.4l-0.6-0.2
				l-1.6,0.5l-0.6-0.7l1.2,0l-0.3-0.1L124.2-42.3L124.2-42.3z"/>
			<path id="path8256" class="st1" d="M146.6,1.9l0.2-0.3l0.5-0.1l0.3-0.4l0.6,0.1l0.5,0.1l0.3,0.3l-0.4,0.2l-0.4,0.6l-0.4,0
				l-0.4-0.4L146.6,1.9z"/>
			
				<path id="path8768"  class="st1" d="
				M113.9-26.4v-0.1l-0.1-0.1l0.1,0h0.2l0.2-0.2h0.2l0-0.1l0.2-0.3l0.2,0l0.1,0.1l0.3-0.1l0.2,0l0-0.2l0.2-0.1l0.3-0.2l0.2,0v-0.1
				l-0.1,0.1l-0.3-0.2l-0.1,0.1l-0.1,0l0-0.1l-0.2-0.1l-0.1-0.1l0-0.1v-0.1h0.3l0-0.2l0.1-0.1l0.1,0.1l0.1,0.1l0.1,0l0,0.1l0.1-0.1
				l0.3-0.1l0.2-0.2l0.1,0.1l0.2-0.1l0.2,0.1l0-0.1l-0.1-0.1l0.1-0.3l0.2-0.2l0.1-0.1v-0.1l0.1-0.1l0-0.2l0-0.1l0-0.2l0.2-0.1l0-0.1
				v-0.2l0-0.1l0.1,0l-0.1-0.1l0.1-0.1l0.1-0.2l0.1,0.1l0.2-0.1l0.1-0.1l0.1,0.2l0.2-0.1l0.2,0l0.1,0.1l0.3,0l0.2-0.3l0-0.2l0.1-0.1
				l0.1-0.3l0-0.2l0-0.2l0.1-0.1l0.3,0.2l0.3,0l0.3,0l0.1,0.1l0.1-0.2l0.5-0.1l0.3-0.1l0.1-0.1l0.2-0.1h0.1l0.1,0.1l0.3,0l0.1-0.1
				l0.2,0.1l0.5,0.2l0.2-0.1l0.2,0l0.2,0.2l0.2,0.4l-0.1,0.5l0,0.3l0,0.1l0.4,0l0,0.4l-0.1,0.1v0.1l0.2,0.1l0.2,0.3l0.2,0.3l0.2,0.3
				l0,0.3l0.2,0.2l0.1,0l-0.1-0.2l-0.1-0.2l0.1,0l0.2,0.1l0.2,0.3l0,0.4l-0.1,0.2l-0.3,0.1l-0.5,0.3l-0.1,0.3l0,0.4l0.3-0.3l0.3-0.2
				l0.2-0.1h0.5l0.4,0l0.2,0.3l0,0.3l0.3,0.2l0,0.5l0.2,0.2l0,0.2l-0.2,0.2l0.1,0.2l-0.2,0.3l0.1,0.1l-0.1,0.2l-0.1,0l0,0.2
				l-0.3,0.5l-0.1,0.1l-0.1,0.2l-0.2-0.2h-0.3l0,0.1l-0.2,0l-0.2,0.2l0,0.5l-0.1,0.5l-0.2,0.1l-0.6,0.5l-0.2-0.1l0.1-0.1l-0.3,0
				l-0.2-0.3l-0.3,0l-0.1-0.1l-0.1,0.1l-0.1-0.1h-0.1l0,0.3l-0.4,0.1l-0.1-0.1l-0.5,0.2l-0.1-0.1l-0.2,0.2l-0.2-0.2l-0.2-0.1
				l0.1-0.1l0-0.3l0.2-0.2l0-0.2l-0.3-0.3h-0.2l-0.3,0l-0.1-0.2l-0.2-0.2l0-0.1l-0.1-0.1l-0.1-0.1l0.2-0.1l-0.1-0.5h-0.1l0-0.2
				l-0.6-0.4l-0.3,0.4l0,0.2l-0.3,0.1l-0.2,0l0.1,0.2l0,0.3l0.1,0.2l-0.1,0.1l0.1,0.1l-0.4,0.1l-0.2,0.2l0,0.2l0.1,0.1l-0.1,0.2
				l-0.2,0.1h-0.2l-0.1-0.1l-0.1,0.1l0-0.2l-0.1-0.1l-0.2,0l-0.1,0.1l-0.3,0l-0.1,0.1l-0.4-0.2l0-0.2l-0.1-0.1l-0.1,0l-0.1-0.2
				l-0.6,0.1l-0.3-0.3l0-0.3l-0.1-0.2l0.1-0.1l-0.3,0l-0.3-0.5h-0.1L113.9-26.4L113.9-26.4L113.9-26.4z"/>
		</g>
		<path id="path9319" class="st1" d="M114.8-0.1l-0.4-0.3L113.9-1l0.2-0.3l0.7,0.4l0.1,0.4l0.4,0.2L114.8-0.1z"/>
		<path id="path9321" class="st1" d="M115.5,0.1l0.2-0.7h0.4L116-0.3l0,0.4L115.5,0.1z"/>
		<path id="path9323" class="st1" d="M115.1-1.3l-0.3-0.2l-0.4-0.1v-1l0.3-0.2l0.4,0l0.6,0.3l-0.1,0.4l-0.2,0l0.1,0.3h0.4l0.4,0.4
			h0.5l-0.1,0.3l-0.5,0.2l-0.5-0.5L115.1-1.3z"/>
		<path id="path9325" class="st1" d="M116.1-3.8l-0.7-0.4l0.3-0.3l0.4,0.3l0.4,0.4L116.1-3.8z"/>
		<path id="path9327" class="st1" d="M116.4-2.9l-0.1-0.3l0.2-0.2l0.3,0.2L116.7-3l-0.2,0.3L116.4-2.9z"/>
		<path id="path9329" class="st1" d="M117.1-3.9l0.1-0.3l0.3,0.1l0.2,0.2l-0.1,0.2l-0.4,0L117.1-3.9z"/>
		<path id="path9331" class="st1" d="M117.8-4.2h0.3v0.3l-0.2,0.1L117.8-4.2z"/>
		<path id="path9333" class="st1" d="M117-3.1l-0.2,0.5l0.5,0.1L117-3.1z"/>
		<path id="path9335" class="st1" d="M116.4-2.1h-0.6l0.3-0.4L116.4-2.1z"/>
		<path id="path9337" class="st1" d="M115.2-3.5l0.6,0.1l0.1,0.4l-0.4-0.1L115.2-3.5z"/>
	</g>
</g>
</svg>
